solid Exported from Blender-2.93.4
facet normal 0.079273 0.925833 0.369526
outer loop
vertex -1.221081 2.310545 0.000000
vertex -1.221081 1.158645 2.886040
vertex -0.962587 2.288412 0.000000
endloop
endfacet
facet normal 0.236650 0.897362 0.372477
outer loop
vertex -0.962587 2.288412 0.000000
vertex -1.221081 1.158645 2.886040
vertex -0.714026 2.222862 0.000000
endloop
endfacet
facet normal 0.390120 0.839543 0.378120
outer loop
vertex -0.714026 2.222862 0.000000
vertex -1.221081 1.158645 2.886040
vertex -0.484951 2.116415 0.000000
endloop
endfacet
facet normal 0.535809 0.750996 0.385894
outer loop
vertex -0.484951 2.116415 0.000000
vertex -1.221081 1.158645 2.886040
vertex -0.284165 1.973161 0.000000
endloop
endfacet
facet normal 0.668078 0.630670 0.394875
outer loop
vertex -0.284165 1.973161 0.000000
vertex -1.221081 1.158645 2.886040
vertex -0.119384 1.798606 0.000000
endloop
endfacet
facet normal 0.779346 0.479168 0.403755
outer loop
vertex -0.119384 1.798606 0.000000
vertex -1.221081 1.158645 2.886040
vertex 0.003059 1.599458 0.000000
endloop
endfacet
facet normal 0.860753 0.300344 0.410971
outer loop
vertex 0.003059 1.599458 0.000000
vertex -1.221081 1.158645 2.886040
vertex 0.078460 1.383369 0.000000
endloop
endfacet
facet normal 0.904019 0.102418 0.415041
outer loop
vertex 0.078460 1.383369 0.000000
vertex -1.221081 1.158645 2.886040
vertex 0.103919 1.158645 0.000000
endloop
endfacet
facet normal 0.904019 -0.102418 0.415041
outer loop
vertex 0.103919 1.158645 0.000000
vertex -1.221081 1.158645 2.886040
vertex 0.078460 0.933920 0.000000
endloop
endfacet
facet normal 0.860753 -0.300344 0.410971
outer loop
vertex 0.078460 0.933920 0.000000
vertex -1.221081 1.158645 2.886040
vertex 0.003059 0.717832 0.000000
endloop
endfacet
facet normal 0.779346 -0.479168 0.403755
outer loop
vertex 0.003059 0.717832 0.000000
vertex -1.221081 1.158645 2.886040
vertex -0.119384 0.518684 0.000000
endloop
endfacet
facet normal 0.668078 -0.630670 0.394875
outer loop
vertex -0.119384 0.518684 0.000000
vertex -1.221081 1.158645 2.886040
vertex -0.284165 0.344129 0.000000
endloop
endfacet
facet normal 0.535809 -0.750996 0.385894
outer loop
vertex -0.284165 0.344129 0.000000
vertex -1.221081 1.158645 2.886040
vertex -0.484951 0.200875 0.000000
endloop
endfacet
facet normal 0.390120 -0.839543 0.378120
outer loop
vertex -0.484951 0.200875 0.000000
vertex -1.221081 1.158645 2.886040
vertex -0.714026 0.094428 0.000000
endloop
endfacet
facet normal 0.236650 -0.897362 0.372477
outer loop
vertex -0.714026 0.094428 0.000000
vertex -1.221081 1.158645 2.886040
vertex -0.962587 0.028878 0.000000
endloop
endfacet
facet normal 0.079273 -0.925833 0.369526
outer loop
vertex -0.962587 0.028878 0.000000
vertex -1.221081 1.158645 2.886040
vertex -1.221081 0.006745 0.000000
endloop
endfacet
facet normal -0.079273 -0.925833 0.369526
outer loop
vertex -1.221081 0.006745 0.000000
vertex -1.221081 1.158645 2.886040
vertex -1.479576 0.028878 0.000000
endloop
endfacet
facet normal -0.236650 -0.897362 0.372476
outer loop
vertex -1.479576 0.028878 0.000000
vertex -1.221081 1.158645 2.886040
vertex -1.728137 0.094428 0.000000
endloop
endfacet
facet normal -0.390120 -0.839543 0.378120
outer loop
vertex -1.728137 0.094428 0.000000
vertex -1.221081 1.158645 2.886040
vertex -1.957212 0.200875 0.000000
endloop
endfacet
facet normal -0.535809 -0.750996 0.385894
outer loop
vertex -1.957212 0.200875 0.000000
vertex -1.221081 1.158645 2.886040
vertex -2.157998 0.344129 0.000000
endloop
endfacet
facet normal -0.668078 -0.630670 0.394875
outer loop
vertex -2.157998 0.344129 0.000000
vertex -1.221081 1.158645 2.886040
vertex -2.322779 0.518683 0.000000
endloop
endfacet
facet normal -0.779346 -0.479169 0.403755
outer loop
vertex -2.322779 0.518683 0.000000
vertex -1.221081 1.158645 2.886040
vertex -2.445222 0.717832 0.000000
endloop
endfacet
facet normal -0.860753 -0.300344 0.410971
outer loop
vertex -2.445222 0.717832 0.000000
vertex -1.221081 1.158645 2.886040
vertex -2.520622 0.933920 0.000000
endloop
endfacet
facet normal -0.904019 -0.102419 0.415041
outer loop
vertex -2.520622 0.933920 0.000000
vertex -1.221081 1.158645 2.886040
vertex -2.546082 1.158645 0.000000
endloop
endfacet
facet normal -0.904019 0.102419 0.415041
outer loop
vertex -2.546082 1.158645 0.000000
vertex -1.221081 1.158645 2.886040
vertex -2.520622 1.383370 0.000000
endloop
endfacet
facet normal -0.860754 0.300344 0.410971
outer loop
vertex -2.520622 1.383370 0.000000
vertex -1.221081 1.158645 2.886040
vertex -2.445222 1.599458 0.000000
endloop
endfacet
facet normal -0.779345 0.479169 0.403755
outer loop
vertex -2.445222 1.599458 0.000000
vertex -1.221081 1.158645 2.886040
vertex -2.322779 1.798606 0.000000
endloop
endfacet
facet normal -0.668079 0.630669 0.394875
outer loop
vertex -2.322779 1.798606 0.000000
vertex -1.221081 1.158645 2.886040
vertex -2.157998 1.973161 0.000000
endloop
endfacet
facet normal -0.535808 0.750996 0.385894
outer loop
vertex -2.157998 1.973161 0.000000
vertex -1.221081 1.158645 2.886040
vertex -1.957212 2.116415 0.000000
endloop
endfacet
facet normal -0.390120 0.839543 0.378120
outer loop
vertex -1.957212 2.116415 0.000000
vertex -1.221081 1.158645 2.886040
vertex -1.728137 2.222862 0.000000
endloop
endfacet
facet normal 0.000000 0.000000 -1.000000
outer loop
vertex -1.479576 2.288412 0.000000
vertex -1.221081 2.310545 0.000000
vertex -0.962587 2.288412 0.000000
endloop
endfacet
facet normal 0.000000 0.000000 -1.000000
outer loop
vertex -0.962587 2.288412 0.000000
vertex -0.714026 2.222862 0.000000
vertex -0.484951 2.116415 0.000000
endloop
endfacet
facet normal 0.000000 0.000000 -1.000000
outer loop
vertex -0.484951 2.116415 0.000000
vertex -0.284165 1.973161 0.000000
vertex -0.119384 1.798606 0.000000
endloop
endfacet
facet normal 0.000000 0.000000 -1.000000
outer loop
vertex -0.119384 1.798606 0.000000
vertex 0.003059 1.599458 0.000000
vertex 0.078460 1.383369 0.000000
endloop
endfacet
facet normal 0.000000 0.000000 -1.000000
outer loop
vertex 0.078460 1.383369 0.000000
vertex 0.103919 1.158645 0.000000
vertex 0.078460 0.933920 0.000000
endloop
endfacet
facet normal 0.000000 0.000000 -1.000000
outer loop
vertex 0.078460 0.933920 0.000000
vertex 0.003059 0.717832 0.000000
vertex -0.119384 0.518684 0.000000
endloop
endfacet
facet normal 0.000000 0.000000 -1.000000
outer loop
vertex -0.119384 0.518684 0.000000
vertex -0.284165 0.344129 0.000000
vertex -0.484951 0.200875 0.000000
endloop
endfacet
facet normal 0.000000 0.000000 -1.000000
outer loop
vertex -0.484951 0.200875 0.000000
vertex -0.714026 0.094428 0.000000
vertex -0.962587 0.028878 0.000000
endloop
endfacet
facet normal 0.000000 0.000000 -1.000000
outer loop
vertex -0.962587 0.028878 0.000000
vertex -1.221081 0.006745 0.000000
vertex -1.479576 0.028878 0.000000
endloop
endfacet
facet normal 0.000000 0.000000 -1.000000
outer loop
vertex -1.479576 0.028878 0.000000
vertex -1.728137 0.094428 0.000000
vertex -1.957212 0.200875 0.000000
endloop
endfacet
facet normal 0.000000 0.000000 -1.000000
outer loop
vertex -1.957212 0.200875 0.000000
vertex -2.157998 0.344129 0.000000
vertex -2.322779 0.518683 0.000000
endloop
endfacet
facet normal 0.000000 0.000000 -1.000000
outer loop
vertex -2.322779 0.518683 0.000000
vertex -2.445222 0.717832 0.000000
vertex -2.520622 0.933920 0.000000
endloop
endfacet
facet normal 0.000000 0.000000 -1.000000
outer loop
vertex -2.520622 0.933920 0.000000
vertex -2.546082 1.158645 0.000000
vertex -2.520622 1.383370 0.000000
endloop
endfacet
facet normal 0.000000 0.000000 -1.000000
outer loop
vertex -2.520622 1.383370 0.000000
vertex -2.445222 1.599458 0.000000
vertex -2.322779 1.798606 0.000000
endloop
endfacet
facet normal 0.000000 0.000000 -1.000000
outer loop
vertex -2.322779 1.798606 0.000000
vertex -2.157998 1.973161 0.000000
vertex -1.957212 2.116415 0.000000
endloop
endfacet
facet normal 0.000000 0.000000 -1.000000
outer loop
vertex -1.957212 2.116415 0.000000
vertex -1.728137 2.222862 0.000000
vertex -1.479576 2.288412 0.000000
endloop
endfacet
facet normal 0.000000 0.000000 -1.000000
outer loop
vertex -1.479576 2.288412 0.000000
vertex -0.962587 2.288412 0.000000
vertex -0.484951 2.116415 0.000000
endloop
endfacet
facet normal 0.000000 0.000000 -1.000000
outer loop
vertex -0.484951 2.116415 0.000000
vertex -0.119384 1.798606 0.000000
vertex 0.078460 1.383369 0.000000
endloop
endfacet
facet normal 0.000000 0.000000 -1.000000
outer loop
vertex 0.078460 1.383369 0.000000
vertex 0.078460 0.933920 0.000000
vertex -0.119384 0.518684 0.000000
endloop
endfacet
facet normal 0.000000 0.000000 -1.000000
outer loop
vertex -0.119384 0.518684 0.000000
vertex -0.484951 0.200875 0.000000
vertex -0.962587 0.028878 0.000000
endloop
endfacet
facet normal 0.000000 0.000000 -1.000000
outer loop
vertex -0.962587 0.028878 0.000000
vertex -1.479576 0.028878 0.000000
vertex -1.957212 0.200875 0.000000
endloop
endfacet
facet normal 0.000000 0.000000 -1.000000
outer loop
vertex -1.957212 0.200875 0.000000
vertex -2.322779 0.518683 0.000000
vertex -2.520622 0.933920 0.000000
endloop
endfacet
facet normal 0.000000 0.000000 -1.000000
outer loop
vertex -2.520622 0.933920 0.000000
vertex -2.520622 1.383370 0.000000
vertex -2.322779 1.798606 0.000000
endloop
endfacet
facet normal 0.000000 0.000000 -1.000000
outer loop
vertex -2.322779 1.798606 0.000000
vertex -1.957212 2.116415 0.000000
vertex -1.479576 2.288412 0.000000
endloop
endfacet
facet normal 0.000000 0.000000 -1.000000
outer loop
vertex -1.479576 2.288412 0.000000
vertex -0.484951 2.116415 0.000000
vertex 0.078460 1.383369 0.000000
endloop
endfacet
facet normal 0.000000 0.000000 -1.000000
outer loop
vertex 0.078460 1.383369 0.000000
vertex -0.119384 0.518684 0.000000
vertex -0.962587 0.028878 0.000000
endloop
endfacet
facet normal 0.000000 0.000000 -1.000000
outer loop
vertex -0.962587 0.028878 0.000000
vertex -1.957212 0.200875 0.000000
vertex -2.520622 0.933920 0.000000
endloop
endfacet
facet normal 0.000000 0.000000 -1.000000
outer loop
vertex -2.520622 0.933920 0.000000
vertex -2.322779 1.798606 0.000000
vertex -1.479576 2.288412 0.000000
endloop
endfacet
facet normal 0.000000 0.000000 -1.000000
outer loop
vertex -1.479576 2.288412 0.000000
vertex 0.078460 1.383369 0.000000
vertex -0.962587 0.028878 0.000000
endloop
endfacet
facet normal 0.000000 0.000000 -1.000000
outer loop
vertex -0.962587 0.028878 0.000000
vertex -2.520622 0.933920 0.000000
vertex -1.479576 2.288412 0.000000
endloop
endfacet
facet normal -0.236650 0.897362 0.372476
outer loop
vertex -1.728137 2.222862 0.000000
vertex -1.221081 1.158645 2.886040
vertex -1.479576 2.288412 0.000000
endloop
endfacet
facet normal -0.079273 0.925833 0.369526
outer loop
vertex -1.479576 2.288412 0.000000
vertex -1.221081 1.158645 2.886040
vertex -1.221081 2.310545 0.000000
endloop
endfacet
endsolid Exported from Blender-2.93.4
